<?xml version="1.0" encoding="UTF-8" standalone="no"?>
<svg
   xmlns:dc="http://purl.org/dc/elements/1.1/"
   xmlns:cc="http://creativecommons.org/ns#"
   xmlns:rdf="http://www.w3.org/1999/02/22-rdf-syntax-ns#"
   xmlns:svg="http://www.w3.org/2000/svg"
   xmlns="http://www.w3.org/2000/svg"
   viewBox="0 0 251.75999 40.52"
   height="40.52"
   width="251.75999"
   xml:space="preserve"
   version="1.1"
   id="svg2"><metadata
     id="metadata8"><rdf:RDF><cc:Work
         rdf:about=""><dc:format>image/svg+xml</dc:format><dc:type
           rdf:resource="http://purl.org/dc/dcmitype/StillImage" /></cc:Work></rdf:RDF></metadata><defs
     id="defs6"><clipPath
       id="clipPath18"
       clipPathUnits="userSpaceOnUse"><path
         id="path20"
         d="m 0,0 1888,0 0,303.887 -1888,0 L 0,0 Z" /></clipPath></defs><g
     transform="matrix(1.3333333,0,0,-1.3333333,0,40.52)"
     id="g10"><g
       transform="scale(0.1)"
       id="g12"><g
         id="g14"><g
           clip-path="url(#clipPath18)"
           id="g16"><path
             id="path22"
             style="fill:#ffffff;fill-opacity:1;fill-rule:nonzero;stroke:none"
             d="m 368.91,0 c -7.898,0 -15.496,2.00391 -22.195,6.10156 l 3.797,7.39454 c 6.004,-3.69922 11.699,-5.69141 18.601,-5.69141 9.004,0 14.903,4.59761 14.903,11.99221 0,5.6015 -3.704,9.5 -11.403,11.6953 l -7.199,2.1094 c -10.398,3 -16.301,8 -16.301,17.7929 0,11.9063 9.199,20 22.801,20 7.598,0 15,-2.1953 21.098,-6.4922 l -4.301,-6.8085 c -6.395,3.9101 -10.699,5.4023 -16.395,5.4023 -7.703,0 -12.5,-3.9922 -12.5,-10.4023 0,-4.8907 2.797,-7.6954 10.2,-9.8907 l 8.101,-2.4023 c 9.199,-2.707 16.797,-8.7031 16.797,-19.4063 C 394.914,11.7969 387.012,0 368.91,0" /><path
             id="path24"
             style="fill:#ffffff;fill-opacity:1;fill-rule:nonzero;stroke:none"
             d="m 456.715,0.996094 -11,0 -5.899,22.996106 c -2.004,7.707 -3.203,14.9023 -3.406,16.9062 -0.297,-2.0976 -1.594,-9.5039 -3.301,-16.5039 l -5.695,-23.398406 -11.203,0 -14.098,52.898406 10,0 6.102,-23.1914 c 2.097,-8.0078 3.097,-14.707 3.5,-18.0078 0.398,3.2031 1.597,9.8047 3.597,17.5 l 6.098,23.6992 10.402,0 6.403,-25.2929 c 1.601,-6.3047 2.797,-12.8008 3.195,-15.5078 0.305,2.4023 1.699,10.1093 3.504,17.3046 l 6,23.4961 9.695,0 -13.894,-52.898406" /><path
             id="path26"
             style="fill:#ffffff;fill-opacity:1;fill-rule:nonzero;stroke:none"
             d="m 481.812,1.30078 9.49609,0 0,52.5938 -9.49609,0 0,-52.5938 z" /><path
             id="path28"
             style="fill:#ffffff;fill-opacity:1;fill-rule:nonzero;stroke:none"
             d="m 536.41,3.30078 c -3.797,-2.10156 -8.5,-3.105468 -13.898,-3.105468 -6.7,0 -13.504,1.601568 -19.403,4.707028 l 3.602,7.29296 c 5.5,-2.89842 10.5,-4.29686 16.297,-4.29686 3.5,0 5.801,0.5 7.902,1.69922 2.5,1.39844 3.899,3.39844 3.899,5.99614 0,3.8007 -2.7,6.2031 -9.301,7.9023 l -7.5,1.9023 c -4.801,1.3008 -8.496,3.5938 -10.594,6.7969 -1.504,2.1992 -2.301,4.6016 -2.301,7.3086 0,9.2969 8.297,15.8008 20,15.8008 6.797,0 14.199,-2.0039 18.895,-5.207 l -4.297,-6.6993 c -4.699,2.8008 -9.5,4.1993 -14.203,4.1993 -6.098,0 -10.196,-2.5977 -10.196,-6.7969 0,-3.3008 2.301,-5.0977 8.297,-6.8086 l 7.203,-1.7969 c 4.102,-1.0937 8.196,-2.8984 10.598,-5.3984 2.399,-2.4024 3.801,-5.8985 3.801,-9.5 0,-5.8047 -3.301,-11.09768 -8.801,-13.99612" /><path
             id="path30"
             style="fill:#ffffff;fill-opacity:1;fill-rule:nonzero;stroke:none"
             d="m 586.812,3.30078 c -3.804,-2.10156 -8.5,-3.105468 -13.902,-3.105468 -6.699,0 -13.5,1.601568 -19.398,4.707028 l 3.597,7.29296 c 5.5,-2.89842 10.5,-4.29686 16.301,-4.29686 3.5,0 5.801,0.5 7.899,1.69922 2.5,1.39844 3.902,3.39844 3.902,5.99614 0,3.8007 -2.699,6.2031 -9.301,7.9023 l -7.5,1.9023 c -4.801,1.3008 -8.504,3.5938 -10.601,6.7969 -1.5,2.1992 -2.301,4.6016 -2.301,7.3086 0,9.2969 8.301,15.8008 20,15.8008 6.801,0 14.199,-2.0039 18.902,-5.207 l -4.301,-6.6993 c -4.699,2.8008 -9.5,4.1993 -14.199,4.1993 -6.101,0 -10.203,-2.5977 -10.203,-6.7969 0,-3.3008 2.301,-5.0977 8.301,-6.8086 l 7.203,-1.7969 c 4.098,-1.0937 8.199,-2.8984 10.601,-5.3984 2.399,-2.4024 3.797,-5.8985 3.797,-9.5 0,-5.8047 -3.3,-11.09768 -8.797,-13.99612" /><path
             id="path32"
             style="fill:#ffffff;fill-opacity:1;fill-rule:nonzero;stroke:none"
             d="M 666.207,1.30078 648.105,37.8984 C 644.609,45 641.008,52.8047 639.707,56.7969 l -0.602,-0.0977 c 0.504,-5.8984 0.704,-12.8047 0.801,-19.1992 l 0.403,-36.19922 -9.704,0 0,68.89452 11.204,0 19.199,-38 c 2.898,-5.7031 6.301,-14.5976 6.801,-16.4922 l 0.601,0.1953 c -0.203,2 -1.004,12.9024 -1.004,20.4961 l -0.199,33.8008 9.301,0 0,-68.89452 -10.301,0" /><path
             id="path34"
             style="fill:#ffffff;fill-opacity:1;fill-rule:nonzero;stroke:none"
             d="m 725.109,1.30078 -5,13.69922 -19.703,0 -5,-13.69922 -9.699,0 19.602,52.69142 10.898,0 19.199,-52.69142 -10.297,0 z M 710.406,45.4961 C 710.109,44.1016 703.207,23.8945 702.809,22.5 l 15.097,0 c -0.601,1.7969 -7.199,21.6016 -7.5,22.9961" /><path
             id="path36"
             style="fill:#ffffff;fill-opacity:1;fill-rule:nonzero;stroke:none"
             d="m 776.309,46.1992 -15.204,0 0,-44.89842 -9.296,0 0,44.89842 -15,0 0,7.6953 40.8,0 -1.3,-7.6953" /><path
             id="path38"
             style="fill:#ffffff;fill-opacity:1;fill-rule:nonzero;stroke:none"
             d="m 787.512,1.30078 9.49219,0 0,52.5938 -9.49219,0 0,-52.5938 z" /><path
             id="path40"
             style="fill:#ffffff;fill-opacity:1;fill-rule:nonzero;stroke:none"
             d="m 818.008,7.19531 c -5,5.30469 -7.305,11.79689 -7.305,20.49999 0,16.8086 9.199,27 24.297,27 8.508,0 14.602,-2.8008 19.004,-8.2031 3.801,-4.3945 5.703,-10.5938 5.703,-18.9922 0,-8.5078 -1.699,-14.5039 -5.398,-19.00391 -4.407,-5.5 -10,-8.097652 -18.704,-8.097652 -7.898,0 -13.203,2.101562 -17.597,6.796872 z M 847.402,15 c 1.301,3.2031 1.7,6.3945 1.7,11.7969 0,6.5039 -0.692,10.7031 -2.293,14.0039 -2.403,4.6953 -6.407,6.6015 -12.004,6.6015 -4.805,0 -8.895,-2.0976 -10.996,-5.5078 -1.903,-3.0937 -2.704,-7.3906 -2.704,-13.5937 0,-7 1.2,-12.1992 3.301,-15.8008 1.903,-3.30078 5.899,-5.09766 11.199,-5.09766 5.899,0 9.903,2.39454 11.797,7.59766" /><path
             id="path42"
             style="fill:#ffffff;fill-opacity:1;fill-rule:nonzero;stroke:none"
             d="m 914.602,1.30078 0,52.59372 -8.997,0 0.293,-24.5976 c 0.11,-6.2031 0.801,-12.9024 0.911,-14.1016 -0.704,1.4063 -3.204,6.8086 -6.301,12.207 l -15.301,26.4922 -10.605,0 0,-52.59372 9.304,0 -0.398,25.19142 c -0.11,6.6016 -0.403,12.0039 -0.606,14.707 0.399,-1.0039 3.907,-8.3945 7,-13.6015 l 15,-26.29692 9.7,0" /><path
             id="path44"
             style="fill:#ffffff;fill-opacity:1;fill-rule:nonzero;stroke:none"
             d="m 963.703,1.30078 -5,13.69922 -19.699,0 -5,-13.69922 -9.695,0 19.597,52.69142 10.899,0 19.199,-52.69142 -10.301,0 z M 949.004,45.4961 C 948.703,44.1016 941.809,23.8945 941.406,22.5 l 15.098,0 c -0.606,1.7969 -7.195,21.6016 -7.5,22.9961" /><path
             id="path46"
             style="fill:#ffffff;fill-opacity:1;fill-rule:nonzero;stroke:none"
             d="m 1013.1,1.30078 -30.198,0 0,52.59372 9.5,0 0,-44.90231 22.198,0 -1.5,-7.69141" /><path
             id="path48"
             style="fill:#ffffff;fill-opacity:1;fill-rule:nonzero;stroke:none"
             d="m 1061.8,0 c -7.9,0 -15.5,2.00391 -22.2,6.10156 l 3.8,7.39454 c 6,-3.69922 11.7,-5.69141 18.61,-5.69141 8.99,0 14.89,4.59761 14.89,11.99221 0,5.6015 -3.69,9.5 -11.4,11.6953 l -7.19,2.1094 c -10.4,3 -16.3,8 -16.3,17.7929 0,11.9063 9.2,20 22.79,20 7.61,0 15,-2.1953 21.1,-6.4922 l -4.29,-6.8085 c -6.41,3.9101 -10.71,5.4023 -16.41,5.4023 -7.7,0 -12.5,-3.9922 -12.5,-10.4023 0,-4.8907 2.8,-7.6954 10.21,-9.8907 l 8.09,-2.4023 c 9.2,-2.707 16.81,-8.7031 16.81,-19.4063 C 1087.81,11.7969 1079.91,0 1061.8,0" /><path
             id="path50"
             style="fill:#ffffff;fill-opacity:1;fill-rule:nonzero;stroke:none"
             d="m 1122.2,0.496094 c -7.2,0 -13.2,2.199216 -17.69,6.507816 -5,4.79299 -7.71,11.69529 -7.71,19.89059 0,6.4063 1.6,11.9063 4.5,16.4063 4.51,7.1953 12.3,11.6015 21.3,11.6015 5.5,0 11.3,-1.6015 14.81,-4.1992 l -4.6,-6.3086 c -3.21,2 -6.41,3.0078 -10.11,3.0078 -5.5,0 -10.4,-2.707 -12.9,-7.4023 -1.8,-2.9961 -2.6,-6.9062 -2.6,-12.5 0,-7.4023 1.11,-11.1992 4.2,-14.6953 3,-3.41017 6.91,-5.10939 11.7,-5.10939 4.1,0 7.5,1.19922 10.9,3.30079 l 4.5,-5.80079 c -3.99,-3.09765 -9.79,-4.699216 -16.3,-4.699216" /><path
             id="path52"
             style="fill:#ffffff;fill-opacity:1;fill-rule:nonzero;stroke:none"
             d="m 1148.31,1.30078 9.5,0 0,52.5938 -9.5,0 0,-52.5938 z" /><path
             id="path54"
             style="fill:#ffffff;fill-opacity:1;fill-rule:nonzero;stroke:none"
             d="m 1174.6,1.30078 0,52.59372 33,0 -1.3,-7.6953 -22.3,0 0,-13.6015 18.6,0 0,-7.6954 -18.49,0 0,-15.60542 24.29,0 0,-7.9961 -33.8,0" /><path
             id="path56"
             style="fill:#ffffff;fill-opacity:1;fill-rule:nonzero;stroke:none"
             d="m 1262.5,1.30078 0,52.59372 -9,0 0.3,-24.5976 c 0.1,-6.2031 0.8,-12.9024 0.9,-14.1016 -0.7,1.4063 -3.2,6.8086 -6.3,12.207 l -15.3,26.4922 -10.6,0 0,-52.59372 9.3,0 -0.4,25.19142 c -0.1,6.6016 -0.4,12.0039 -0.59,14.707 0.4,-1.0039 3.89,-8.3945 6.99,-13.6015 l 15,-26.29692 9.7,0" /><path
             id="path58"
             style="fill:#ffffff;fill-opacity:1;fill-rule:nonzero;stroke:none"
             d="m 1300.8,0.496094 c -7.2,0 -13.2,2.199216 -17.7,6.507816 -5,4.79299 -7.69,11.69529 -7.69,19.89059 0,6.4063 1.59,11.9063 4.49,16.4063 4.5,7.1953 12.3,11.6015 21.3,11.6015 5.5,0 11.3,-1.6015 14.8,-4.1992 l -4.6,-6.3086 c -3.2,2 -6.4,3.0078 -10.1,3.0078 -5.5,0 -10.4,-2.707 -12.9,-7.4023 -1.8,-2.9961 -2.6,-6.9062 -2.6,-12.5 0,-7.4023 1.1,-11.1992 4.2,-14.6953 3,-3.41017 6.9,-5.10939 11.7,-5.10939 4.1,0 7.5,1.19922 10.9,3.30079 l 4.5,-5.80079 c -4,-3.09765 -9.8,-4.699216 -16.3,-4.699216" /><path
             id="path60"
             style="fill:#ffffff;fill-opacity:1;fill-rule:nonzero;stroke:none"
             d="m 1326.7,1.30078 0,52.59372 33,0 -1.3,-7.6953 -22.3,0 0,-13.6015 18.6,0 0,-7.6954 -18.5,0 0,-15.60542 24.3,0 0,-7.9961 -33.8,0" /><path
             id="path62"
             style="fill:#ffffff;fill-opacity:1;fill-rule:nonzero;stroke:none"
             d="m 1428.7,62.2969 -24.9,0 0,-20.9024 20.39,0 0,-7.7929 -20.39,0 0,-32.30082 -9.7,0 0,68.89452 35.9,0 -1.3,-7.8984" /><path
             id="path64"
             style="fill:#ffffff;fill-opacity:1;fill-rule:nonzero;stroke:none"
             d="m 1441.2,7.19531 c -5,5.30469 -7.3,11.79689 -7.3,20.49999 0,16.8086 9.2,27 24.3,27 8.49,0 14.6,-2.8008 19,-8.2031 3.8,-4.3945 5.7,-10.5938 5.7,-18.9922 0,-8.5078 -1.7,-14.5039 -5.4,-19.00391 -4.4,-5.5 -10,-8.097652 -18.71,-8.097652 -7.9,0 -13.19,2.101562 -17.59,6.796872 z M 1470.6,15 c 1.3,3.2031 1.7,6.3945 1.7,11.7969 0,6.5039 -0.7,10.7031 -2.3,14.0039 -2.4,4.6953 -6.4,6.6015 -12,6.6015 -4.8,0 -8.9,-2.0976 -11,-5.5078 -1.9,-3.0937 -2.7,-7.3906 -2.7,-13.5937 0,-7 1.2,-12.1992 3.3,-15.8008 1.9,-3.30078 5.9,-5.09766 11.19,-5.09766 5.91,0 9.91,2.39454 11.81,7.59766" /><path
             id="path66"
             style="fill:#ffffff;fill-opacity:1;fill-rule:nonzero;stroke:none"
             d="m 1532.4,5.39844 c -3.5,-3.30078 -8.4,-5.000002 -15.71,-5.000002 -10.09,0 -15.69,3.703122 -18.3,8.300782 -1.59,2.99998 -2.1,5.19528 -2.1,11.09768 l 0,34.0976 9.41,0 0,-32.2929 c 0,-3.7969 0.19,-6.6016 0.8,-8 1.4,-3.4063 5.19,-5.39848 10.3,-5.39848 4.09,0 7.2,1.19141 8.8,3.28908 1.49,2.0039 1.99,3.8125 1.99,8.9062 l 0,33.4961 9.5,0 0,-33.8945 c 0,-8.3984 -1.09,-11.30078 -4.69,-14.60156" /><path
             id="path68"
             style="fill:#ffffff;fill-opacity:1;fill-rule:nonzero;stroke:none"
             d="m 1583.89,1.30078 -15,26.29692 c -3.09,5.207 -6.59,12.5976 -6.99,13.6015 0.19,-2.7031 0.5,-8.1054 0.6,-14.707 l 0.4,-25.19142 -9.3,0 0,52.59372 10.59,0 15.31,-26.4922 c 3.09,-5.3984 5.59,-10.8007 6.3,-12.207 -0.1,1.1992 -0.8,7.8985 -0.9,14.1016 l -0.31,24.5976 9.01,0 0,-52.59372 -9.71,0" /><path
             id="path70"
             style="fill:#ffffff;fill-opacity:1;fill-rule:nonzero;stroke:none"
             d="m 1637,52.0977 c 7.79,-2.4024 15.09,-8.8946 15.09,-24.5 0,-17.0039 -10.59,-24.19926 -17.09,-25.59379 -2.31,-0.60938 -5.5,-0.70313 -9.41,-0.70313 l -15.29,0 0,52.59372 11.79,0 c 5.5,0 10.6,0 14.91,-1.7968 z m 0.9,-10.4961 c -3.11,3.7031 -6.61,4.7929 -12.01,4.7929 l -6.2,0 0,-37.49997 7.31,0 c 1.7,0 3.59,0.20703 5,0.60938 5.59,1.39449 9.79,6.29689 9.79,17.39059 0,6.9063 -1.09,11.4063 -3.89,14.7071" /><path
             id="path72"
             style="fill:#ffffff;fill-opacity:1;fill-rule:nonzero;stroke:none"
             d="m 1697.69,1.30078 -5,13.69922 -19.7,0 -5,-13.69922 -9.69,0 19.6,52.69142 10.89,0 19.2,-52.69142 -10.3,0 z m -14.7,44.19532 c -0.3,-1.3945 -7.19,-21.6016 -7.59,-22.9961 l 15.09,0 c -0.59,1.7969 -7.19,21.6016 -7.5,22.9961" /><path
             id="path74"
             style="fill:#ffffff;fill-opacity:1;fill-rule:nonzero;stroke:none"
             d="m 1748.89,46.1992 -15.19,0 0,-44.89842 -9.31,0 0,44.89842 -15,0 0,7.6953 40.8,0 -1.3,-7.6953" /><path
             id="path76"
             style="fill:#ffffff;fill-opacity:1;fill-rule:nonzero;stroke:none"
             d="m 1760.09,1.30078 9.5,0 0,52.5938 -9.5,0 0,-52.5938 z" /><path
             id="path78"
             style="fill:#ffffff;fill-opacity:1;fill-rule:nonzero;stroke:none"
             d="m 1792.59,7.19531 c -5,5.30469 -7.3,11.79689 -7.3,20.49999 0,16.8086 9.2,27 24.3,27 8.5,0 14.6,-2.8008 19,-8.2031 3.8,-4.3945 5.7,-10.5938 5.7,-18.9922 0,-8.5078 -1.7,-14.5039 -5.4,-19.00391 -4.4,-5.5 -10,-8.097652 -18.7,-8.097652 -7.9,0 -13.2,2.101562 -17.6,6.796872 z M 1821.99,15 c 1.3,3.2031 1.7,6.3945 1.7,11.7969 0,6.5039 -0.7,10.7031 -2.3,14.0039 -2.4,4.6953 -6.39,6.6015 -12,6.6015 -4.8,0 -8.9,-2.0976 -11,-5.5078 -1.9,-3.0937 -2.7,-7.3906 -2.7,-13.5937 0,-7 1.2,-12.1992 3.3,-15.8008 1.9,-3.30078 5.9,-5.09766 11.2,-5.09766 5.9,0 9.9,2.39454 11.8,7.59766" /><path
             id="path80"
             style="fill:#ffffff;fill-opacity:1;fill-rule:nonzero;stroke:none"
             d="m 1878.49,1.30078 -15,26.29692 c -3.1,5.207 -6.6,12.5976 -7,13.6015 0.2,-2.7031 0.5,-8.1054 0.59,-14.707 l 0.41,-25.19142 -9.3,0 0,52.59372 10.6,0 15.3,-26.4922 c 3.1,-5.3984 5.6,-10.8007 6.3,-12.207 -0.1,1.1992 -0.81,7.8985 -0.9,14.1016 l -0.3,24.5976 9,0 0,-52.59372 -9.7,0" /><path
             id="path82"
             style="fill:#ffffff;fill-opacity:1;fill-rule:evenodd;stroke:none"
             d="m 10.8828,122.922 680.332,0 0,170.082 -680.332,0 0,-170.082 z" /><path
             id="path84"
             style="fill:none;stroke:#ffffff;stroke-width:21.77000046;stroke-linecap:butt;stroke-linejoin:miter;stroke-miterlimit:4;stroke-dasharray:none;stroke-opacity:1"
             d="m 10.8828,122.922 680.332,0 0,170.082 -680.332,0 0,-170.082 z" /><path
             id="path86"
             style="fill:#003399;fill-opacity:1;fill-rule:evenodd;stroke:none"
             d="m 409.867,293.004 c 0.313,-0.176 0.664,-0.324 0.969,-0.5 l -20.109,-39.316 c -9.278,7.753 -21.141,12.929 -33.672,12.929 -9.414,0 -21.993,-5.429 -21.993,-16.308 0,-11.375 13.879,-15.77 22.786,-18.614 l 13.035,-3.886 c 27.062,-8.008 48.281,-22.063 48.281,-53.61 0,-17.754 -4.59,-37.715 -17.07,-50.738 l 289.121,0 0,170.043 -281.348,0" /><path
             id="path88"
             style="fill:#999999;fill-opacity:1;fill-rule:evenodd;stroke:none"
             d="m 274.711,123.27 21.68,42.992 c 12.636,-11.117 27.578,-20.16 44.961,-20.16 12.05,0 24.882,5.937 24.882,19.652 0,14.234 -20.156,19.137 -31.172,22.242 -31.699,9.043 -52.597,17.328 -52.597,55.094 0,21.23 8.144,38.449 21.66,49.914 l -293.2422,0 0,-170.043 264.2972,0 c -0.157,0.094 -0.321,0.191 -0.469,0.309" /><path
             id="path90"
             style="fill:#ffffff;fill-opacity:1;fill-rule:nonzero;stroke:none"
             d="m 74.6445,257.074 0,-35.527 43.8945,0 0,-14.402 -43.8945,0 0,-62.079 -15.7031,0 0,126.414 61.1136,0 0,-14.406 -45.4105,0" /><path
             id="path92"
             style="fill:none;stroke:#ffffff;stroke-width:3;stroke-linecap:butt;stroke-linejoin:miter;stroke-miterlimit:4;stroke-dasharray:none;stroke-opacity:1"
             d="m 74.6445,257.074 0,-35.527 43.8945,0 0,-14.402 -43.8945,0 0,-62.079 -15.7031,0 0,126.414 61.1136,0 0,-14.406 -45.4105,0 z" /><path
             id="path94"
             style="fill:#ffffff;fill-opacity:1;fill-rule:nonzero;stroke:none"
             d="m 146.715,277.516 94.812,-99.422 0,93.386 15.703,0 0,-131.609 -94.804,99.41 0,-94.215 -15.711,0 0,132.45" /><path
             id="path96"
             style="fill:none;stroke:#ffffff;stroke-width:3;stroke-linecap:butt;stroke-linejoin:miter;stroke-miterlimit:4;stroke-dasharray:none;stroke-opacity:1"
             d="m 146.715,277.516 94.812,-99.422 0,93.386 15.703,0 0,-131.609 -94.804,99.41 0,-94.215 -15.711,0 0,132.45 z" /><path
             id="path98"
             style="fill:#ffffff;fill-opacity:1;fill-rule:nonzero;stroke:none"
             d="m 445.387,277.516 94.804,-99.422 0,93.386 15.704,0 0,-131.609 -94.805,99.41 0,-94.215 -15.703,0 0,132.45" /><path
             id="path100"
             style="fill:none;stroke:#ffffff;stroke-width:3;stroke-linecap:butt;stroke-linejoin:miter;stroke-miterlimit:4;stroke-dasharray:none;stroke-opacity:1"
             d="m 445.387,277.516 94.804,-99.422 0,93.386 15.704,0 0,-131.609 -94.805,99.41 0,-94.215 -15.703,0 0,132.45 z" /><path
             id="path102"
             style="fill:#ffffff;fill-opacity:1;fill-rule:nonzero;stroke:none"
             d="m 603.59,257.074 0,-35.527 43.894,0 0,-14.402 -43.894,0 0,-62.079 -15.703,0 0,126.414 61.113,0 0,-14.406 -45.41,0" /><path
             id="path104"
             style="fill:none;stroke:#ffffff;stroke-width:3;stroke-linecap:butt;stroke-linejoin:miter;stroke-miterlimit:4;stroke-dasharray:none;stroke-opacity:1"
             d="m 603.59,257.074 0,-35.527 43.894,0 0,-14.402 -43.894,0 0,-62.079 -15.703,0 0,126.414 61.113,0 0,-14.406 -45.41,0 z" /></g></g></g></g></svg>